<?xml version="1.0" encoding="utf-8"?>
<!-- Generator: Adobe Illustrator 16.0.3, SVG Export Plug-In . SVG Version: 6.00 Build 0)  -->
<!DOCTYPE svg PUBLIC "-//W3C//DTD SVG 1.1//EN" "http://www.w3.org/Graphics/SVG/1.1/DTD/svg11.dtd">
<svg version="1.1" id="Layer_1" xmlns="http://www.w3.org/2000/svg" xmlns:xlink="http://www.w3.org/1999/xlink" x="0px" y="0px"
	 width="1991.363px" height="510.974px" viewBox="0 0 1991.363 510.974" enable-background="new 0 0 1991.363 510.974"
	 xml:space="preserve">
<g>
	<path fill="none" stroke="#488FCC" stroke-width="40" stroke-miterlimit="10" d="M561.133,96.502v136.273
		c0,12.543-10.169,22.711-22.711,22.711h-68.14v-68.134c0-12.543-10.168-22.717-22.711-22.717H265.875V96.502
		c0-12.543,10.169-22.712,22.711-22.712h249.836C550.964,73.791,561.133,83.959,561.133,96.502z"/>
	<path fill="none" stroke="#4DAF4E" stroke-width="40" stroke-miterlimit="10" d="M470.282,187.353v136.269
		c0,12.541-10.168,22.711-22.711,22.711h-68.134v-68.134c0-12.543-10.169-22.705-22.711-22.712H175.023v-68.134
		c0-12.543,10.169-22.717,22.711-22.717h249.836C460.114,164.636,470.282,174.81,470.282,187.353z"/>
	<path fill="none" stroke="#EF4438" stroke-width="40" stroke-miterlimit="10" d="M379.437,278.199v136.273
		c0,12.542-10.175,22.711-22.717,22.711H106.89c-12.543,0-22.711-10.169-22.711-22.711V278.199
		c0-12.543,10.168-22.712,22.711-22.712h249.836C369.268,255.494,379.437,265.656,379.437,278.199z"/>
</g>
<g>
	<path fill="#9D9D9D" d="M709.116,133.481c31.985,0,56.577,6.08,73.779,18.239c17.197,12.159,25.798,30.291,25.798,54.389
		c0,13.145-2.357,24.375-7.066,33.685c-4.714,9.314-11.502,16.873-20.375,22.676c-8.873,5.808-19.667,10.023-32.37,12.652
		c-12.709,2.629-27.062,3.943-43.051,3.943h-25.305v84.459h-31.877V139.068c8.981-2.188,19.004-3.666,30.07-4.437
		C689.778,133.866,699.914,133.481,709.116,133.481z M711.745,161.415c-13.587,0-23.99,0.329-31.22,0.986v89.389h23.99
		c10.953,0,20.812-0.708,29.578-2.136c8.76-1.422,16.154-3.831,22.183-7.23c6.023-3.394,10.681-8.052,13.967-13.967
		c3.287-5.916,4.93-13.474,4.93-22.676c0-8.76-1.7-15.99-5.094-21.689c-3.399-5.695-8-10.239-13.803-13.639
		c-5.808-3.394-12.544-5.751-20.211-7.065C728.392,162.073,720.29,161.415,711.745,161.415z"/>
	<path fill="#9D9D9D" d="M909.579,189.021c2.629,0,5.638,0.165,9.038,0.493c3.394,0.329,6.737,0.77,10.023,1.314
		c3.286,0.549,6.295,1.099,9.038,1.643c2.737,0.549,4.765,1.042,6.08,1.479l-5.258,26.62c-2.414-0.873-6.408-1.916-11.995-3.122
		c-5.587-1.202-12.766-1.808-21.525-1.808c-5.7,0-11.338,0.606-16.925,1.808c-5.587,1.207-9.258,2.028-11.009,2.464v143.614h-30.563
		v-163.66c7.23-2.629,16.211-5.094,26.948-7.395C884.161,190.171,896.212,189.021,909.579,189.021z"/>
	<path fill="#9D9D9D" d="M1124.174,278.081c0,13.587-1.973,25.854-5.916,36.807c-3.943,10.958-9.479,20.375-16.596,28.263
		c-7.123,7.887-15.611,13.967-25.471,18.239c-9.857,4.271-20.596,6.408-32.205,6.408c-11.615,0-22.348-2.137-32.207-6.408
		c-9.859-4.272-18.352-10.353-25.469-18.239c-7.122-7.888-12.652-17.305-16.596-28.263c-3.943-10.953-5.916-23.22-5.916-36.807
		c0-13.361,1.973-25.577,5.916-36.643c3.943-11.061,9.474-20.54,16.596-28.427c7.117-7.887,15.609-13.967,25.469-18.239
		c9.859-4.272,20.592-6.409,32.207-6.409c11.609,0,22.348,2.136,32.205,6.409c9.859,4.272,18.348,10.352,25.471,18.239
		c7.117,7.888,12.652,17.367,16.596,28.427C1122.201,252.504,1124.174,264.72,1124.174,278.081z M1092.295,278.081
		c0-19.276-4.328-34.558-12.98-45.844c-8.658-11.282-20.432-16.925-35.328-16.925c-14.902,0-26.676,5.643-35.328,16.925
		c-8.658,11.286-12.981,26.568-12.981,45.844c0,19.282,4.323,34.563,12.981,45.845c8.652,11.286,20.426,16.925,35.328,16.925
		c14.896,0,26.67-5.639,35.328-16.925C1087.967,312.644,1092.295,297.362,1092.295,278.081z"/>
</g>
<g>
	<path fill="#616262" d="M1266.33,331.977c-2.193-5.258-5.094-11.939-8.709-20.047c-3.615-8.103-7.508-16.868-11.667-26.291
		c-4.165-9.417-8.601-19.112-13.31-29.084c-4.714-9.967-9.15-19.39-13.311-28.263c-4.164-8.873-8.051-16.812-11.666-23.826
		c-3.615-7.009-6.521-12.375-8.709-16.103c-2.413,25.854-4.385,53.845-5.915,83.966c-1.536,30.126-2.851,60.525-3.944,91.196h-31.22
		c0.873-19.718,1.858-39.601,2.958-59.647c1.094-20.046,2.352-39.765,3.779-59.154c1.422-19.389,2.957-38.286,4.601-56.689
		c1.644-18.403,3.45-35.821,5.423-52.253h27.934c5.916,9.644,12.268,21.033,19.061,34.178c6.789,13.145,13.582,26.896,20.375,41.244
		c6.789,14.352,13.361,28.704,19.719,43.051c6.352,14.352,12.16,27.441,17.418,39.271c5.258-11.831,11.061-24.919,17.418-39.271
		c6.352-14.347,12.924-28.699,19.718-43.051c6.788-14.347,13.581-28.099,20.375-41.244c6.788-13.146,13.146-24.535,19.062-34.178
		h27.934c7.445,73.398,13.032,149.313,16.76,227.744h-31.22c-1.099-30.671-2.413-61.07-3.944-91.196
		c-1.535-30.122-3.506-58.112-5.915-83.966c-2.192,3.728-5.094,9.094-8.708,16.103c-3.615,7.015-7.508,14.953-11.667,23.826
		c-4.165,8.873-8.601,18.296-13.31,28.263c-4.715,9.972-9.15,19.667-13.311,29.084c-4.164,9.423-8.051,18.188-11.666,26.291
		c-3.615,8.108-6.521,14.789-8.709,20.047H1266.33z"/>
	<path fill="#616262" d="M1503.6,188.363c12.268,0,22.619,1.592,31.057,4.765c8.432,3.179,15.225,7.672,20.375,13.474
		c5.145,5.808,8.816,12.709,11.01,20.704c2.188,8,3.285,16.817,3.285,26.455v106.806c-2.629,0.442-6.301,1.043-11.008,1.808
		c-4.715,0.771-10.023,1.479-15.939,2.137s-12.324,1.258-19.226,1.807c-6.901,0.545-13.751,0.822-20.54,0.822
		c-9.643,0-18.516-0.986-26.619-2.958c-8.107-1.972-15.117-5.094-21.033-9.366c-5.914-4.272-10.516-9.91-13.802-16.925
		c-3.286-7.009-4.93-15.446-4.93-25.305c0-9.417,1.915-17.525,5.751-24.319c3.83-6.789,9.037-12.268,15.61-16.432
		c6.573-4.159,14.239-7.229,23.005-9.202c8.76-1.972,17.961-2.958,27.605-2.958c3.064,0,6.244,0.164,9.529,0.493
		c3.287,0.329,6.408,0.771,9.367,1.315c2.957,0.549,5.529,1.042,7.723,1.479c2.188,0.442,3.723,0.771,4.601,0.986v-8.544
		c0-5.037-0.55-10.023-1.644-14.953c-1.099-4.93-3.07-9.31-5.915-13.146c-2.851-3.831-6.737-6.901-11.667-9.202
		c-4.93-2.301-11.338-3.451-19.225-3.451c-10.08,0-18.896,0.713-26.455,2.136c-7.559,1.427-13.202,2.906-16.925,4.437l-3.615-25.305
		c3.944-1.751,10.517-3.451,19.718-5.094C1482.896,189.185,1492.862,188.363,1503.6,188.363z M1506.229,341.507
		c7.23,0,13.639-0.164,19.226-0.493c5.587-0.328,10.239-0.93,13.967-1.808v-50.938c-2.192-1.094-5.751-2.023-10.681-2.793
		c-4.93-0.765-10.901-1.15-17.91-1.15c-4.602,0-9.479,0.329-14.625,0.986c-5.15,0.657-9.859,2.028-14.131,4.108
		c-4.272,2.085-7.836,4.93-10.681,8.545c-2.851,3.615-4.272,8.38-4.272,14.295c0,10.958,3.502,18.568,10.517,22.84
		C1484.646,339.372,1494.178,341.507,1506.229,341.507z"/>
	<path fill="#616262" d="M1619.934,197.565c7.008-1.751,16.318-3.615,27.934-5.586c11.609-1.972,24.977-2.958,40.094-2.958
		c13.582,0,24.863,1.92,33.85,5.751c8.98,3.835,16.154,9.202,21.525,16.103c5.365,6.901,9.145,15.173,11.338,24.812
		c2.188,9.643,3.285,20.268,3.285,31.877v95.961h-30.563v-89.389c0-10.517-0.713-19.498-2.137-26.948
		c-1.428-7.446-3.779-13.474-7.064-18.075c-3.287-4.601-7.672-7.939-13.146-10.023c-5.479-2.08-12.271-3.122-20.375-3.122
		c-3.287,0-6.686,0.113-10.188,0.329c-3.508,0.221-6.85,0.493-10.023,0.822c-3.178,0.329-6.029,0.713-8.545,1.15
		c-2.521,0.442-4.328,0.771-5.422,0.986v144.271h-30.563V197.565z"/>
	<path fill="#616262" d="M1848.33,341.507c12.488,0,21.742-1.644,27.77-4.93c6.023-3.286,9.039-8.544,9.039-15.774
		c0-7.445-2.959-13.361-8.875-17.746c-5.914-4.38-15.666-9.31-29.248-14.789c-6.572-2.629-12.873-5.31-18.896-8.052
		c-6.027-2.737-11.23-5.967-15.609-9.695c-4.385-3.723-7.887-8.216-10.518-13.474c-2.629-5.258-3.943-11.718-3.943-19.389
		c0-15.117,5.588-27.112,16.762-35.986c11.172-8.873,26.398-13.31,45.68-13.31c4.816,0,9.639,0.277,14.459,0.822
		c4.816,0.549,9.311,1.207,13.475,1.972c4.16,0.77,7.83,1.592,11.01,2.465c3.174,0.878,5.639,1.643,7.395,2.3l-5.588,26.291
		c-3.285-1.751-8.436-3.559-15.445-5.422c-7.014-1.859-15.445-2.793-25.305-2.793c-8.545,0-15.996,1.7-22.348,5.094
		c-6.357,3.399-9.529,8.708-9.529,15.938c0,3.728,0.707,7.015,2.135,9.859c1.424,2.85,3.615,5.422,6.574,7.723
		c2.957,2.301,6.623,4.437,11.008,6.409c4.381,1.972,9.639,4.057,15.775,6.244c8.102,3.07,15.332,6.08,21.689,9.037
		c6.352,2.958,11.775,6.409,16.268,10.352c4.488,3.944,7.939,8.709,10.352,14.296c2.408,5.586,3.615,12.437,3.615,20.54
		c0,15.774-5.863,27.719-17.582,35.821c-11.723,8.108-28.428,12.159-50.117,12.159c-15.117,0-26.947-1.263-35.492-3.779
		c-8.545-2.516-14.352-4.437-17.418-5.751l5.588-26.291c3.502,1.314,9.088,3.287,16.76,5.916
		C1825.434,340.193,1835.621,341.507,1848.33,341.507z"/>
</g>
</svg>
