<?xml version="1.0" encoding="iso-8859-1"?>
<!-- Generator: Adobe Illustrator 19.0.0, SVG Export Plug-In . SVG Version: 6.00 Build 0)  -->
<svg version="1.1" id="Layer_1" xmlns="http://www.w3.org/2000/svg" xmlns:xlink="http://www.w3.org/1999/xlink" x="0px" y="0px"
	 viewBox="0 0 509.287 509.287" style="enable-background:new 0 0 509.287 509.287;" xml:space="preserve">
<circle style="fill:#0090FF;" cx="254.644" cy="254.644" r="254.644"/>
<rect x="227.179" y="142.442" transform="matrix(-0.7071 -0.7071 0.7071 -0.7071 260.3517 612.4433)" style="fill:#DDDEE6;" width="59.676" height="219.717"/>
<g>
	<path style="fill:#F1F3F7;" d="M423.502,133.595l-46.792,46.792l-47.809-48.148l46.792-46.792
		c-21.362-5.086-44.758,0.678-61.372,17.293c-25.43,25.43-25.43,66.797,0,92.228c25.43,25.43,66.797,25.43,92.228,0
		C423.163,178.691,428.927,154.956,423.502,133.595z"/>
	<path style="fill:#F1F3F7;" d="M195.306,313.981c-25.43-25.43-66.797-25.43-92.228,0c-16.615,16.615-22.379,40.011-17.293,61.372
		l46.792-46.792l48.148,48.148l-46.792,46.792c21.362,5.086,44.758-0.678,61.372-17.293
		C220.736,380.779,220.736,339.412,195.306,313.981z"/>
	
		<rect x="185.06" y="49.337" transform="matrix(-0.7071 0.7071 -0.7071 -0.7071 477.6437 198.1906)" style="fill:#F1F3F7;" width="25.43" height="297.364"/>
	<polygon style="fill:#F1F3F7;" points="131.221,103.417 103.417,131.221 83.751,102.061 102.061,83.751 	"/>
</g>
<polygon style="fill:#DEDEDF;" points="103.417,131.221 131.221,103.417 140.715,122.744 122.744,140.715 "/>
<path style="fill:#F0582F;" d="M311.947,250.236l-12.885-12.885l-61.372,62.05l12.885,12.885l6.781-6.781l12.885,12.885
	l-6.781,6.781l95.279,95.279c7.121,7.121,18.31,6.781,25.43-0.339l35.942-35.942c7.121-7.121,7.121-18.649,0.339-25.43
	l-95.619-95.619l-6.781,6.781l-12.885-12.885L311.947,250.236z"/>
<g>
	<path style="fill:#D64E3C;" d="M298.384,320.763c-2.034,2.034-2.034,5.764,0,7.799l69.849,69.849c2.034,2.034,5.764,2.374,7.799,0
		c2.034-2.373,2.034-5.764,0-7.799l-69.849-69.849C303.809,318.728,300.419,318.728,298.384,320.763z"/>
	<path style="fill:#D64E3C;" d="M320.763,298.384c-2.034,2.034-2.034,5.764,0,7.799l69.849,69.849c2.034,2.034,5.764,2.374,7.799,0
		c2.034-2.374,2.034-5.764,0-7.799l-69.849-69.849C326.188,296.011,322.797,296.011,320.763,298.384z"/>
</g>
<g>
</g>
<g>
</g>
<g>
</g>
<g>
</g>
<g>
</g>
<g>
</g>
<g>
</g>
<g>
</g>
<g>
</g>
<g>
</g>
<g>
</g>
<g>
</g>
<g>
</g>
<g>
</g>
<g>
</g>
</svg>
